<?xml version="1.0" standalone="no"?>
<!DOCTYPE svg PUBLIC "-//W3C//DTD SVG 1.1//EN" "http://www.w3.org/Graphics/SVG/1.1/DTD/svg11.dtd">
<svg xmlns="http://www.w3.org/2000/svg">
<metadata>Generated by Fontastic.me</metadata>
<defs>
<font id="dficon" horiz-adv-x="512">
<font-face font-family="dficon" units-per-em="512" ascent="480" descent="-32"/>
<missing-glyph horiz-adv-x="512" />

<glyph unicode="&#57344;" d="M256 132l204 203 22-22-181-182-45-45-45 46-181 181 22 22z m0 90l204 204 22-23-226-226-45 45-181 181 22 23z"/>
<glyph unicode="&#57408;" d="M256 177l-204 203-22-22 226-226 226 226-22 22z"/>
<glyph unicode="&#57409;" d="M177 256l203 204-22 22-226-226 226-226 22 22z"/>
<glyph unicode="&#57410;" d="M460 132l22 22-226 226-226-226 22-22 204 203z"/>
<glyph unicode="&#57411;" d="M132 52l22-22 226 226-226 226-22-22 203-204z"/>
<glyph unicode="&#57349;" d="M132 256l203 204-22 22-182-181-45-45 46-45 181-181 22 22z m90 0l204 204-23 22-226-226 45-45 181-181 23 22z"/>
<glyph unicode="&#57350;" d="M380 256l-203-204 22-22 182 181 45 45-46 45-181 181-22-22z m-90 0l-204-204 23-22 226 226-45 45-181 181-23-22z"/>
<glyph unicode="&#57414;" d="M256 199l-204 159-22-23 226-181 226 181-22 23z"/>
<glyph unicode="&#57415;" d="M199 256l159 204-23 22-181-226 181-226 23 22z"/>
<glyph unicode="&#57416;" d="M256 313l-204-159-22 23 226 181 226-181-22-23z"/>
<glyph unicode="&#57417;" d="M313 256l-159 204 23 22 181-226-181-226-23 22z"/>
<glyph unicode="&#57355;" d="M256 380l204-203 22 22-181 182-45 45-45-46-181-181 22-22z m0-90l204-204 22 23-226 226-45-45-181-181 22-23z"/>
<glyph unicode="&#57356;" d="M107 427l374 0-17-205c-163-23-259-37-286-40-21-2-40-10-57-24-16-13-26-30-29-48l389 0 0-20-412 0c0 4 1 10 3 20 6 41 31 69 76 85l-67 249-49 0 0 20 62 0z m20-354c6-6 9-13 9-21 0-7-3-14-9-20-6-6-12-9-20-9-8 0-15 3-21 9-5 6-8 13-8 20 0 8 3 15 8 21 6 6 13 9 21 9 8 0 14-3 20-9z m337 0c6-6 9-13 9-21 0-7-3-14-9-20-6-6-13-9-20-9-8 0-15 3-21 9-6 6-9 13-9 20 0 8 3 15 9 21 6 6 13 9 21 9 7 0 14-3 20-9z"/>
<glyph unicode="&#57357;" d="M480 330c0 36-13 67-38 93-25 25-57 39-92 38-37 1-70-13-94-39-24 26-57 40-94 39-35 1-67-13-92-38-25-26-38-57-38-93 0-33 12-64 36-90l0 0 167-169 13-12 8-8 20 20 1 0 163 166c26 24 40 57 40 93z"/>
<glyph unicode="&#57358;" d="M480 330c0 36-13 67-38 93-25 25-57 39-92 38-37 1-70-13-94-39-24 26-57 40-94 39-35 1-67-13-92-38-25-26-38-57-38-93 0-33 12-64 36-90l0 0 167-169 13-12 8-8 20 20 1 0 163 166c26 24 40 57 40 93z m-382-62c-18 19-26 39-26 62 0 25 9 46 27 64 18 19 38 27 63 27 18 0 35-5 50-15 15-11 26-24 33-41l11-24 11 24c7 17 18 30 33 41 15 10 32 15 50 15 25 0 45-8 63-27 18-18 27-39 27-64 0-24-9-45-29-64l-155-158z"/>
<glyph unicode="&#57359;" d="M32 272l448 0 0-32-448 0z"/>
<glyph unicode="&#57412;" d="M193 446c8 0 15-7 15-16l0-111c0-8-7-15-15-15l-111 0c-9 0-16 7-16 15l0 111c0 9 7 16 16 16l111 0m0 32l-111 0c-27 0-48-21-48-48l0-111c0-26 21-47 48-47l111 0c26 0 47 21 47 47l0 111c0 27-21 48-47 48z m237-32c9 0 16-7 16-16l0-111c0-8-7-15-16-15l-111 0c-8 0-15 7-15 15l0 111c0 9 7 16 15 16l111 0m0 32l-111 0c-26 0-47-21-47-48l0-111c0-26 21-47 47-47l111 0c27 0 48 21 48 47l0 111c0 27-21 48-48 48z m-237-270c8 0 15-7 15-15l0-111c0-9-7-16-15-16l-111 0c-9 0-16 7-16 16l0 111c0 8 7 15 16 15l111 0m0 32l-111 0c-27 0-48-21-48-47l0-111c0-27 21-48 48-48l111 0c26 0 47 21 47 48l0 111c0 26-21 47-47 47z m237-32c9 0 16-7 16-15l0-111c0-9-7-16-16-16l-111 0c-8 0-15 7-15 16l0 111c0 8 7 15 15 15l111 0m0 32l-111 0c-26 0-47-21-47-47l0-111c0-27 21-48 47-48l111 0c27 0 48 21 48 48l0 111c0 26-21 47-48 47z"/>
<glyph unicode="&#57361;" d="M197 302c-5 6-11 10-18 13-7 3-15 5-24 5l-30 0 0-128 30 0c9 0 17 2 24 5 7 3 13 8 18 14 4 5 8 12 11 20 2 8 3 16 3 25 0 10-1 18-3 26-3 8-7 15-11 20z m257 178l-396 0c-15 0-26-11-26-26l0-396c0-15 11-26 26-26l396 0c15 0 26 11 26 26l0 396c0 15-11 26-26 26z m-200-268c-5-13-12-24-21-34-10-9-21-15-34-21-13-5-28-7-44-7l-81 0 0 212 81 0c18 0 33-3 46-8 14-6 25-13 34-23 9-9 15-20 20-33 4-13 7-27 7-42 0-16-3-31-8-44z m181 108l-96 0 0-48 80 0 0-38-80 0 0-84-48 0 0 212 144 0z"/>
<glyph unicode="&#57413;" d="M208 448l0-144-144 0 0 144 144 0m32 32l-208 0 0-208 208 0z m208-32l0-144-144 0 0 144 144 0m32 32l-208 0 0-208 208 0z m-272-272l0-144-144 0 0 144 144 0m32 32l-208 0 0-208 208 0z m208-32l0-144-144 0 0 144 144 0m32 32l-208 0 0-208 208 0z"/>
<glyph unicode="&#57363;" d="M32 131l0 253 95 0c21 0 39-3 55-10 15-7 28-16 39-27 11-12 19-25 24-40 5-16 8-32 8-49 0-20-3-37-9-53-6-15-14-29-25-40-12-11-25-19-40-25-16-6-33-9-52-9z m161 127c0 11-1 21-4 30-3 9-7 17-13 24-6 7-13 12-21 15-9 4-18 6-28 6l-36 0 0-151 36 0c10 0 20 2 28 6 8 3 15 9 21 16 6 6 10 14 13 23 3 10 4 20 4 31z m95-127l0 253 172 0 0-51-113 0 0-55 93 0 0-47-93 0 0-100-59 0z"/>
<glyph unicode="&#57364;" d="M464 480l-416 0c-9 0-16-7-16-16l0-416c0-9 7-16 16-16l416 0c9 0 16 7 16 16l0 416c0 9-7 16-16 16z m-342-24l246-180 13-97-239 138z m220-323l37-32-60 4-5 7z m-53-25l-82 7 97 95 68-40z m-17 87l-15-15-94 112z m84-135l-136-4-22 48 192-16z"/>
<glyph unicode="&#57365;" d="M412 58l-47 41-35-26 7-9z m-136 120l-139 124 120-143z m21-111l107 80-87 50-124-121z m-212 444l26-178 304-175-16 123z m97-449l29-61 172 5 44 36z"/>
<glyph unicode="&#57366;" d="M482 120l-135 136 135 136-90 90-136-135-136 135-90-90 135-136-135-136 90-90 136 135 136-135z"/>
<glyph unicode="&#57367;" d="M460 98l-159 158 159 158-46 46-158-159-158 159-46-46 159-158-159-158 46-46 158 159 158-159z"/>
<glyph unicode="&#57368;" d="M86 64l170 169 170-169 22 22-169 170 169 170-22 22-170-169-170 169-22-22 169-170-169-170z"/>
<glyph unicode="&#57369;" d="M107 427l374 0-17-205c-163-23-259-37-286-40-21-2-40-10-57-24-16-13-26-30-29-48l389 0 0-20-412 0c0 4 1 10 3 20 6 41 31 69 76 85l-67 249-49 0 0 20 62 0z m20-354c6-6 9-13 9-21 0-7-3-14-9-20-6-6-12-9-20-9-8 0-15 3-21 9-5 6-8 13-8 20 0 8 3 15 8 21 6 6 13 9 21 9 8 0 14-3 20-9z m317 166l17 168-347 0 51-207 1 0c1 0 2 1 3 1z m20-166c6-6 9-13 9-21 0-7-3-14-9-20-6-6-13-9-20-9-8 0-15 3-21 9-6 6-9 13-9 20 0 8 3 15 9 21 6 6 13 9 21 9 7 0 14-3 20-9z"/>
<glyph unicode="&#57370;" d="M359 207l-5-8 126-127-40-40-126 127-8-6c-31-19-63-29-97-29-49 0-90 18-125 53-35 35-52 77-52 126 0 49 17 90 52 125 35 35 76 52 125 52 49 0 91-17 126-52 34-35 52-76 52-125 0-35-10-66-28-96z m-50 195c-28 27-61 41-100 41-39 0-72-14-99-41-27-27-41-60-41-99 0-39 14-72 41-100 27-27 60-40 99-40 39 0 72 13 100 40 28 28 42 62 42 100 0 38-14 71-42 99z"/>
<glyph unicode="&#57371;" d="M32 448l448 0 0-64-448 0z m0-160l448 0 0-64-448 0z m0-160l448 0 0-64-448 0z"/>
<glyph unicode="&#57372;" d="M480 410c0-14-12-26-26-26l-396 0c-14 0-26 12-26 26l0 12c0 14 12 26 26 26l396 0c14 0 26-12 26-26z m0-160c0-14-12-26-26-26l-396 0c-14 0-26 12-26 26l0 12c0 14 12 26 26 26l396 0c14 0 26-12 26-26z m0-160c0-14-12-26-26-26l-396 0c-14 0-26 12-26 26l0 12c0 14 12 26 26 26l396 0c14 0 26-12 26-26z"/>
<glyph unicode="&#57373;" d="M480 288l-192 0 0 192-64 0 0-192-192 0 0-64 192 0 0-192 64 0 0 192 192 0z"/>
<glyph unicode="&#57424;" d="M480 272l-208 0 0 208-32 0 0-208-208 0 0-32 208 0 0-208 32 0 0 208 208 0z"/>
<glyph unicode="&#57375;" d="M256 416c88 0 160-72 160-160 0-88-72-160-160-160-88 0-160 72-160 160 0 88 72 160 160 160m0 40c-110 0-200-90-200-200 0-110 90-200 200-200 110 0 200 90 200 200 0 110-90 200-200 200z"/>
<glyph unicode="&#57376;" d="M256 416c88 0 160-72 160-160 0-88-72-160-160-160-88 0-160 72-160 160 0 88 72 160 160 160m0 40c-110 0-200-90-200-200 0-110 90-200 200-200 110 0 200 90 200 200 0 110-90 200-200 200z m114-200c0-63-51-114-114-114-63 0-114 51-114 114 0 63 51 114 114 114 63 0 114-51 114-114z"/>
<glyph unicode="&#57377;" d="M124 141c40 174 238 214 238 214l0 54 119-118-119-119 0 54c0 0-153 6-238-85z m239-21l0-44-286 0 0 185 63 0c12 16 26 31 42 45l-149 0 0-275 375 0 0 133z"/>
<glyph unicode="&#57378;" d="M347 139c19 0 35-7 49-21 13-13 20-30 20-49 0-19-7-35-20-49-14-13-30-20-49-20-19 0-36 7-49 20-14 14-21 30-21 49 0 6 1 10 1 12l-161 91c-14-13-30-19-48-19-19 0-35 6-49 20-13 13-20 30-20 49 0 19 7 35 20 49 14 13 30 20 49 20 18 0 34-6 48-19l161 90c0 3-1 7-1 12 0 19 7 36 21 49 13 14 30 21 49 21 19 0 35-7 49-21 13-13 20-30 20-49 0-19-7-35-20-49-14-13-30-20-49-20-19 0-36 7-49 20l-161-88c1-6 2-11 2-15 0-4-1-9-2-15l160-88c14 13 30 20 50 20z"/>
<glyph unicode="&#57379;" d="M116 65c-10 1-16 3-25 6-28 9-49 28-65 59-14 27-20 54-20 93 0 51 12 95 37 137 25 42 67 80 119 106 5 2 10 4 10 4 1-1 14-28 14-28 0 0-6-3-13-6-13-7-26-15-37-24-8-6-28-27-35-36-17-20-30-45-34-64-4-19-4-40 0-56 0-3 1-6 2-6 0 0 3 1 5 3 12 9 31 16 46 17 35 3 65-9 87-34 14-15 22-34 24-58 2-30-6-56-25-78-14-17-36-29-58-33-9-2-23-2-32-2z m274 0c-39 4-68 24-89 63-22 41-27 105-12 163 11 47 34 86 69 120 17 17 37 32 60 45 12 7 28 15 28 14 0 0 4-6 8-14l7-14-9-4c-46-21-89-66-106-111-6-16-9-32-8-49 1-11 3-26 5-28 0 0 3 1 6 3 7 6 21 12 30 14 22 6 52 3 73-7 13-7 30-21 37-32 10-16 15-33 16-55 2-36-12-67-41-88-15-12-31-18-52-20-10 0-11 0-22 0z"/>
<glyph unicode="&#57380;" d="M396 470c10-1 16-3 25-6 28-9 49-28 65-59 14-27 20-54 20-93 0-51-12-95-37-137-25-42-67-80-119-106-5-2-10-4-10-4-1 1-14 28-14 28 0 0 6 3 13 6 13 7 26 15 37 24 8 6 28 27 35 36 17 20 30 45 34 64 4 19 4 40 0 56 0 3-1 6-2 6 0 0-3-1-5-3-12-9-31-16-46-17-35-3-65 9-87 34-14 15-22 34-24 58-2 30 6 56 25 78 14 17 36 29 58 33 9 2 23 2 32 2z m-274 0c39-4 68-24 89-63 22-41 27-105 12-163-11-47-34-86-69-120-17-17-37-32-60-45-12-7-28-15-28-14 0 0-4 6-8 14l-7 14 9 4c46 21 89 66 106 111 6 16 9 32 8 49-1 11-3 26-5 28 0 0-3-1-6-3-7-6-21-12-30-14-22-6-52-3-73 7-13 7-30 21-37 32-10 16-15 33-16 55-2 36 12 67 41 88 15 12 31 18 52 20 10 0 11 0 22 0z"/>
<glyph unicode="&#57381;" d="M480 320l-160 0 0 160-128 0 0-160-160 0 0-128 160 0 0-160 128 0 0 160 160 0z"/>
<glyph unicode="&#57425;" d="M32 288l448 0 0-64-448 0z"/>
<glyph unicode="&#57383;" d="M32 320l448 0 0-128-448 0z"/>
<glyph unicode="&#57384;" d="M256 230l-104 104-26-26 130-130 130 130-26 26z"/>
<glyph unicode="&#57385;" d="M230 256l104 104-26 26-130-130 130-130 26 26z"/>
<glyph unicode="&#57386;" d="M282 256l-104 104 26 26 130-130-130-130-26 26z"/>
<glyph unicode="&#57387;" d="M256 282l-104-104-26 26 130 130 130-130-26-26z"/>
<glyph unicode="&#57389;" d="M274 302l64 64-50 50 128 0 0-128-50 50-64-64z m0-92l28 28 64-64 50 50 0-128-128 0 50 50z m-36 0l-64-64 50-50-128 0 0 128 50-50 64 64z m0 92l-28-28-64 64-50-50 0 128 128 0-50-50z"/>
<glyph unicode="&#57345;" d="M267 135l238 238-11 11-238-238-238 238-11-11 249-249z"/>
<glyph unicode="&#57347;" d="M267 377l238-238-11-11-238 238-238-238-11 11 249 249z"/>
<glyph unicode="&#57346;" d="M135 267l238 238 11-11-238-238 238-238-11-11-249 249z"/>
<glyph unicode="&#57348;" d="M377 267l-238 238-11-11 238-238-238-238 11-11 249 249z"/>
<glyph unicode="&#57362;" d="M224 496l0-208-208 0 0 208 208 0m16 16l-240 0 0-240 240 0z m256-16l0-208-208 0 0 208 208 0m16 16l-240 0 0-240 240 0z m-288-288l0-208-208 0 0 208 208 0m16 16l-240 0 0-240 240 0z m256-16l0-208-208 0 0 208 208 0m16 16l-240 0 0-240 240 0z"/>
<glyph unicode="&#57351;" d="M505 322l-9 14-240-140-240 140-9-14 249-146z"/>
<glyph unicode="&#57353;" d="M505 190l-9-14-240 140-240-140-9 14 249 146z"/>
<glyph unicode="&#57352;" d="M322 505l14-9-140-240 140-240-14-9-146 249z"/>
<glyph unicode="&#57354;" d="M190 505l-14-9 140-240-140-240 14-9 146 249z"/>
<glyph unicode="&#57360;" d="M190 496c19 0 34-15 34-34l0-140c0-19-15-34-34-34l-140 0c-19 0-34 15-34 34l0 140c0 19 15 34 34 34l140 0m0 16l-140 0c-28 0-50-22-50-50l0-140c0-28 22-50 50-50l140 0c28 0 50 22 50 50l0 140c0 28-22 50-50 50z m272-16c19 0 34-15 34-34l0-140c0-19-15-34-34-34l-140 0c-19 0-34 15-34 34l0 140c0 19 15 34 34 34l140 0m0 16l-140 0c-28 0-50-22-50-50l0-140c0-28 22-50 50-50l140 0c28 0 50 22 50 50l0 140c0 28-22 50-50 50z m-272-288c19 0 34-15 34-34l0-140c0-19-15-34-34-34l-140 0c-19 0-34 15-34 34l0 140c0 19 15 34 34 34l140 0m0 16l-140 0c-28 0-50-22-50-50l0-140c0-28 22-50 50-50l140 0c28 0 50 22 50 50l0 140c0 28-22 50-50 50z m272-16c19 0 34-15 34-34l0-140c0-19-15-34-34-34l-140 0c-19 0-34 15-34 34l0 140c0 19 15 34 34 34l140 0m0 16l-140 0c-28 0-50-22-50-50l0-140c0-28 22-50 50-50l140 0c28 0 50 22 50 50l0 140c0 28-22 50-50 50z"/>
<glyph unicode="&#57382;" d="M0 256l496 0 0-16-496 0z"/>
<glyph unicode="&#57374;" d="M496 256l-240 0 0 240-16 0 0-240-240 0 0-16 240 0 0-240 16 0 0 240 240 0z"/>
<glyph unicode="&#57388;" d="M448 420l-82-82 50-50-128 0 0 128 50-50 82 82z m0-328l-28-28-82 82-50-50 0 128 128 0-50-50z m-384 0l82 82-50 50 128 0 0-128-50 50-82-82z m0 328l28 28 82-82 50 50 0-128-128 0 50 50z"/>
<glyph unicode="&#57390;" d="M144 464l0-355c-12 14-30 23-50 23-37 0-66-29-66-66 0-36 29-66 66-66 36 0 65 28 66 64l0 0 0 262 304 42 0-227c-12 14-30 23-50 23-37 0-66-29-66-66 0-36 29-66 66-66 36 0 65 28 66 64l0 0 0 416z m-50-448c-28 0-50 22-50 50 0 28 22 50 50 50 28 0 50-22 50-50 0-28-22-50-50-50z m320 32c-28 0-50 22-50 50 0 28 22 50 50 50 28 0 50-22 50-50 0-28-22-50-50-50z m-254 294l0 108 304 44 0-110z"/>
<glyph unicode="&#57391;" d="M416 368l0-304-400 0 0 304 400 0m16 16l-432 0 0-336 432 0z m80-256l-64 0 0 16 48 0 0 304-432 0 0-48-16 0 0 64 464 0z m-190 178c14 0 25-11 25-25 0-14-11-26-25-26-14 0-25 12-25 26 0 14 11 25 25 25m0 16c-23 0-41-18-41-41 0-23 18-42 41-42 23 0 41 19 41 42 0 23-18 41-41 41z m94-224l-95 88-94-47-115 196-96-154 0-30 96 154 109-188 98 49 97-90z"/>
<glyph unicode="&#57392;" d="M496 416l0-320-480 0 0 320 480 0m16 16l-512 0 0-352 512 0z m-99-66c14 0 25-11 25-25 0-14-11-25-25-25-14 0-25 11-25 25 0 14 11 25 25 25m0 16c-23 0-41-18-41-41 0-23 18-41 41-41 23 0 41 18 41 41 0 23-18 41-41 41z m83-239l-162 141-46-76-95 157-177-200 0-24 175 198 97-163 50 84 158-138z"/>
<glyph unicode="&#57393;" d="M280 174c-15 0-29 3-42 9l6 15c11-5 23-8 36-8 0 0 0 0 0 0 29 0 55 14 72 36l0 1 1 0 117 117c11 16 17 35 17 54 0 24-9 47-26 64-17 17-40 26-64 26 0 0 0 0 0 0-19 0-38-6-53-18l-96-96-11 12 96 96 1 1c18 14 40 21 63 21 0 0 0 0 0 0 29 0 55-11 75-31 20-20 31-47 31-75 0-23-7-45-21-64l0 0-1 0-117-118c-20-26-51-42-84-42 0 0 0 0 0 0z m-166-166c-28 0-55 11-75 31-20 20-31 47-31 75 0 27 11 53 32 74l127 128 1 0c18 14 40 22 63 22 0 0 0 0 0 0 15 0 29-3 43-9l-7-15c-11 5-23 8-36 8 0 0 0 0 0 0-19 0-38-7-53-18l-127-127c-17-18-27-40-27-63 0-24 9-47 26-64 17-17 40-26 64-26 0 0 0 0 0 0 29 0 55 13 72 36l0 1 1 0 64 64 11-12-64-63c-20-27-51-42-84-42 0 0 0 0 0 0z"/>
<glyph unicode="&#57394;" d="M140 357c26 22 54 37 85 44l-9 28c-51-14-92-38-123-70-30-33-49-73-57-119-7-37-5-69 7-96 14-33 38-53 74-59 25-4 47 0 67 14 20 14 33 34 37 59 5 27 0 50-14 69-14 20-33 31-58 36-19 3-37 0-55-9-1 8-1 18 1 30 5 26 20 51 45 73z m248-94c-19 3-37 0-55-9-1 8-1 18 1 30 5 26 20 51 45 73 26 22 54 37 85 44l-8 28c-52-14-93-38-123-70-31-33-50-73-58-119-7-37-4-69 7-96 14-33 38-53 74-59 25-4 47 0 67 14 21 14 33 34 37 59 5 27 1 50-13 69-14 20-34 31-59 36z"/>
<glyph unicode="&#57395;" d="M432 496l0-480-352 0 0 377 103 103 249 0m16 16l-272 0-112-112 0-400 384 0z m-192-96l128 0 0-16-128 0z m-128-80l256 0 0-16-256 0z m0-80l256 0 0-16-256 0z m0-80l256 0 0-16-256 0z m0-80l256 0 0-16-256 0z m48 393l0-89-89 0-7-7 0-9 112 0 0 112-9 0z"/>
<glyph unicode="&#57396;" d="M224 320l85-64-85-64 0 128m-16 32l0-192 128 96z m48 144c31 0 62-6 90-18 30-12 57-29 80-52 23-23 40-50 52-80 12-28 18-59 18-90 0-31-6-62-18-90-12-30-29-57-52-80-23-23-50-40-80-52-28-12-59-18-90-18-31 0-62 6-90 18-30 12-57 29-80 52-23 23-40 50-52 80-12 28-18 59-18 90 0 31 6 62 18 90 12 30 29 57 52 80 23 23 50 40 80 52 28 12 59 18 90 18m0 16c-66 0-131-25-181-75-100-100-100-262 0-362 50-50 115-75 181-75 66 0 131 25 181 75 100 100 100 262 0 362-50 50-115 75-181 75z"/>
<glyph unicode="&#57397;" d="M488 35l-221 221 221 221-11 11-221-221-221 221-11-11 221-221-221-221 11-11 221 221 221-221z"/>
<glyph unicode="&#57398;" d="M144 448l224 0 0-16-224 0z m368-416l-512 0 0 416 80 0 0-16-64 0 0-384 480 0 0 384-64 0 0 16 80 0z m-368 368l-64 0 0 80 64 0z m-48 16l32 0 0 48-32 0z m336-16l-64 0 0 80 64 0z m-48 16l32 0 0 48-32 0z m-368-48l480 0 0-16-480 0z"/>
</font>
</defs>
</svg>
